<svg xmlns="http://www.w3.org/2000/svg" width="760" height="360" viewBox="0 0 760 360" role="img">
  <defs>
    <marker id="arrow" markerWidth="8" markerHeight="8" refX="6" refY="3" orient="auto">
      <path d="M0,0 L0,6 L6,3 z" fill="#17202a" />
    </marker>
  </defs>
  <style>
    text { font-family: -apple-system, BlinkMacSystemFont, "Segoe UI", sans-serif; fill: #17202a; }
    .title { font-size: 20px; font-weight: 700; }
    .label { font-size: 13px; }
    .small { font-size: 12px; fill: #566573; }
    .axis { stroke: #5d6d7e; stroke-width: 1.5; }
    .grid { stroke: #d6dbdf; stroke-width: 1; }
  </style>
<rect x="0" y="0" width="760" height="360" fill="#ffffff" />
<text class="title" x="48" y="32">D4 / 2D4: sixteen indexed representatives</text>
<rect x="70" y="68" width="292" height="26" rx="4" fill="#f8f9f9" stroke="#d6dbdf" />
<text class="small" x="80" y="86"> 0</text>
<text class="small" x="118" y="86">0000</text>
<text class="small" x="180" y="86">(0,0,0,0)</text>
<rect x="70" y="102" width="292" height="26" rx="4" fill="#f8f9f9" stroke="#d6dbdf" />
<text class="small" x="80" y="120"> 1</text>
<text class="small" x="118" y="120">0001</text>
<text class="small" x="180" y="120">(0,0,1,1)</text>
<rect x="70" y="136" width="292" height="26" rx="4" fill="#f8f9f9" stroke="#d6dbdf" />
<text class="small" x="80" y="154"> 2</text>
<text class="small" x="118" y="154">0010</text>
<text class="small" x="180" y="154">(0,0,1,-1)</text>
<rect x="70" y="170" width="292" height="26" rx="4" fill="#f8f9f9" stroke="#d6dbdf" />
<text class="small" x="80" y="188"> 3</text>
<text class="small" x="118" y="188">0011</text>
<text class="small" x="180" y="188">(2,0,0,0)</text>
<rect x="70" y="204" width="292" height="26" rx="4" fill="#f8f9f9" stroke="#d6dbdf" />
<text class="small" x="80" y="222"> 4</text>
<text class="small" x="118" y="222">0100</text>
<text class="small" x="180" y="222">(0,1,-1,0)</text>
<rect x="70" y="238" width="292" height="26" rx="4" fill="#f8f9f9" stroke="#d6dbdf" />
<text class="small" x="80" y="256"> 5</text>
<text class="small" x="118" y="256">0101</text>
<text class="small" x="180" y="256">(0,1,0,1)</text>
<rect x="70" y="272" width="292" height="26" rx="4" fill="#f8f9f9" stroke="#d6dbdf" />
<text class="small" x="80" y="290"> 6</text>
<text class="small" x="118" y="290">0110</text>
<text class="small" x="180" y="290">(0,1,0,-1)</text>
<rect x="70" y="306" width="292" height="26" rx="4" fill="#f8f9f9" stroke="#d6dbdf" />
<text class="small" x="80" y="324"> 7</text>
<text class="small" x="118" y="324">0111</text>
<text class="small" x="180" y="324">(0,1,1,0)</text>
<rect x="404" y="68" width="292" height="26" rx="4" fill="#f8f9f9" stroke="#d6dbdf" />
<text class="small" x="414" y="86"> 8</text>
<text class="small" x="452" y="86">1000</text>
<text class="small" x="514" y="86">(1,-1,0,0)</text>
<rect x="404" y="102" width="292" height="26" rx="4" fill="#f8f9f9" stroke="#d6dbdf" />
<text class="small" x="414" y="120"> 9</text>
<text class="small" x="452" y="120">1001</text>
<text class="small" x="514" y="120">(1,1,1,-1)</text>
<rect x="404" y="136" width="292" height="26" rx="4" fill="#f8f9f9" stroke="#d6dbdf" />
<text class="small" x="414" y="154">10</text>
<text class="small" x="452" y="154">1010</text>
<text class="small" x="514" y="154">(1,1,1,1)</text>
<rect x="404" y="170" width="292" height="26" rx="4" fill="#f8f9f9" stroke="#d6dbdf" />
<text class="small" x="414" y="188">11</text>
<text class="small" x="452" y="188">1011</text>
<text class="small" x="514" y="188">(1,1,0,0)</text>
<rect x="404" y="204" width="292" height="26" rx="4" fill="#f8f9f9" stroke="#d6dbdf" />
<text class="small" x="414" y="222">12</text>
<text class="small" x="452" y="222">1100</text>
<text class="small" x="514" y="222">(1,0,-1,0)</text>
<rect x="404" y="238" width="292" height="26" rx="4" fill="#f8f9f9" stroke="#d6dbdf" />
<text class="small" x="414" y="256">13</text>
<text class="small" x="452" y="256">1101</text>
<text class="small" x="514" y="256">(1,0,0,1)</text>
<rect x="404" y="272" width="292" height="26" rx="4" fill="#f8f9f9" stroke="#d6dbdf" />
<text class="small" x="414" y="290">14</text>
<text class="small" x="452" y="290">1110</text>
<text class="small" x="514" y="290">(1,0,0,-1)</text>
<rect x="404" y="306" width="292" height="26" rx="4" fill="#f8f9f9" stroke="#d6dbdf" />
<text class="small" x="414" y="324">15</text>
<text class="small" x="452" y="324">1111</text>
<text class="small" x="514" y="324">(1,0,1,0)</text>
<text class="small" x="68" y="334">The index is the generator-coordinate bit pattern read as a binary integer.</text>
</svg>
