<svg xmlns="http://www.w3.org/2000/svg" width="760" height="360" viewBox="0 0 760 360" role="img">
  <defs>
    <marker id="arrow" markerWidth="8" markerHeight="8" refX="6" refY="3" orient="auto">
      <path d="M0,0 L0,6 L6,3 z" fill="#17202a" />
    </marker>
  </defs>
  <style>
    text { font-family: -apple-system, BlinkMacSystemFont, "Segoe UI", sans-serif; fill: #17202a; }
    .title { font-size: 20px; font-weight: 700; }
    .label { font-size: 13px; }
    .small { font-size: 12px; fill: #566573; }
    .axis { stroke: #5d6d7e; stroke-width: 1.5; }
    .grid { stroke: #d6dbdf; stroke-width: 1; }
  </style>
<rect x="0" y="0" width="760" height="360" fill="#ffffff" />
<text class="title" x="48" y="32">Modulo 4 turns infinitely many integers into four classes</text>
<line class="axis" x1="52" y1="178" x2="708" y2="178" />
<circle cx="78" cy="178" r="10" fill="#d9822b" />
<text class="small" text-anchor="middle" x="78" y="210">-7</text>
<text class="small" text-anchor="middle" x="78" y="160">1</text>
<circle cx="120" cy="178" r="10" fill="#2e8b57" />
<text class="small" text-anchor="middle" x="120" y="210">-6</text>
<text class="small" text-anchor="middle" x="120" y="160">2</text>
<circle cx="162" cy="178" r="10" fill="#8e44ad" />
<text class="small" text-anchor="middle" x="162" y="210">-5</text>
<text class="small" text-anchor="middle" x="162" y="160">3</text>
<circle cx="204" cy="178" r="10" fill="#2f6f9f" />
<text class="small" text-anchor="middle" x="204" y="210">-4</text>
<text class="small" text-anchor="middle" x="204" y="160">0</text>
<circle cx="246" cy="178" r="10" fill="#d9822b" />
<text class="small" text-anchor="middle" x="246" y="210">-3</text>
<text class="small" text-anchor="middle" x="246" y="160">1</text>
<circle cx="288" cy="178" r="10" fill="#2e8b57" />
<text class="small" text-anchor="middle" x="288" y="210">-2</text>
<text class="small" text-anchor="middle" x="288" y="160">2</text>
<circle cx="330" cy="178" r="10" fill="#8e44ad" />
<text class="small" text-anchor="middle" x="330" y="210">-1</text>
<text class="small" text-anchor="middle" x="330" y="160">3</text>
<circle cx="372" cy="178" r="10" fill="#2f6f9f" />
<text class="small" text-anchor="middle" x="372" y="210">0</text>
<text class="small" text-anchor="middle" x="372" y="160">0</text>
<circle cx="414" cy="178" r="10" fill="#d9822b" />
<text class="small" text-anchor="middle" x="414" y="210">1</text>
<text class="small" text-anchor="middle" x="414" y="160">1</text>
<circle cx="456" cy="178" r="10" fill="#2e8b57" />
<text class="small" text-anchor="middle" x="456" y="210">2</text>
<text class="small" text-anchor="middle" x="456" y="160">2</text>
<circle cx="498" cy="178" r="10" fill="#8e44ad" />
<text class="small" text-anchor="middle" x="498" y="210">3</text>
<text class="small" text-anchor="middle" x="498" y="160">3</text>
<circle cx="540" cy="178" r="10" fill="#2f6f9f" />
<text class="small" text-anchor="middle" x="540" y="210">4</text>
<text class="small" text-anchor="middle" x="540" y="160">0</text>
<circle cx="582" cy="178" r="10" fill="#d9822b" />
<text class="small" text-anchor="middle" x="582" y="210">5</text>
<text class="small" text-anchor="middle" x="582" y="160">1</text>
<circle cx="624" cy="178" r="10" fill="#2e8b57" />
<text class="small" text-anchor="middle" x="624" y="210">6</text>
<text class="small" text-anchor="middle" x="624" y="160">2</text>
<circle cx="666" cy="178" r="10" fill="#8e44ad" />
<text class="small" text-anchor="middle" x="666" y="210">7</text>
<text class="small" text-anchor="middle" x="666" y="160">3</text>
<text class="small" x="62" y="82">Numbers with the same color differ by a multiple of 4.</text>
<text class="small" x="62" y="334">A residue class is infinite, but its representative index is finite.</text>
</svg>
