<svg xmlns="http://www.w3.org/2000/svg" width="760" height="360" viewBox="0 0 760 360" role="img">
  <defs>
    <marker id="arrow" markerWidth="8" markerHeight="8" refX="6" refY="3" orient="auto">
      <path d="M0,0 L0,6 L6,3 z" fill="#17202a" />
    </marker>
  </defs>
  <style>
    text { font-family: -apple-system, BlinkMacSystemFont, "Segoe UI", sans-serif; fill: #17202a; }
    .title { font-size: 20px; font-weight: 700; }
    .label { font-size: 13px; }
    .small { font-size: 12px; fill: #566573; }
    .axis { stroke: #5d6d7e; stroke-width: 1.5; }
    .grid { stroke: #d6dbdf; stroke-width: 1; }
  </style>
<rect x="0" y="0" width="760" height="360" fill="#ffffff" />
<text class="title" x="48" y="32">Offline codebook generation</text>
<rect x="58" y="132" width="118" height="54" rx="7" fill="#f8f9f9" stroke="#d6dbdf" stroke-width="2" />
<text class="label" text-anchor="middle" x="117" y="164">enumerate D4</text>
<rect x="206" y="132" width="118" height="54" rx="7" fill="#f8f9f9" stroke="#d6dbdf" stroke-width="2" />
<text class="label" text-anchor="middle" x="265" y="164">apply 2V rule</text>
<rect x="354" y="132" width="118" height="54" rx="7" fill="#f8f9f9" stroke="#d6dbdf" stroke-width="2" />
<text class="label" text-anchor="middle" x="413" y="164">compute bits</text>
<rect x="502" y="132" width="118" height="54" rx="7" fill="#f8f9f9" stroke="#d6dbdf" stroke-width="2" />
<text class="label" text-anchor="middle" x="561" y="164">sort indices</text>
<rect x="600" y="224" width="118" height="54" rx="7" fill="#f8f9f9" stroke="#d6dbdf" stroke-width="2" />
<text class="label" text-anchor="middle" x="659" y="256">store A2</text>
<line x1="176" y1="159" x2="206" y2="159" stroke="#17202a" stroke-width="3" marker-end="url(#arrow)" />
<line x1="324" y1="159" x2="354" y2="159" stroke="#17202a" stroke-width="3" marker-end="url(#arrow)" />
<line x1="472" y1="159" x2="502" y2="159" stroke="#17202a" stroke-width="3" marker-end="url(#arrow)" />
<line x1="561" y1="186" x2="630" y2="224" stroke="#17202a" stroke-width="3" marker-end="url(#arrow)" />
<rect x="68" y="246" width="446" height="42" rx="7" fill="#8e44ad" opacity="0.12" stroke="#8e44ad" />
<text class="small" text-anchor="middle" x="291" y="272">verify exactly one representative for each index 0 through 15</text>
<text class="small" x="68" y="334">The online path uses only the stored table and index arithmetic.</text>
</svg>
