<svg xmlns="http://www.w3.org/2000/svg" width="760" height="360" viewBox="0 0 760 360" role="img">
  <defs>
    <marker id="arrow" markerWidth="8" markerHeight="8" refX="6" refY="3" orient="auto">
      <path d="M0,0 L0,6 L6,3 z" fill="#17202a" />
    </marker>
  </defs>
  <style>
    text { font-family: -apple-system, BlinkMacSystemFont, "Segoe UI", sans-serif; fill: #17202a; }
    .title { font-size: 20px; font-weight: 700; }
    .label { font-size: 13px; }
    .small { font-size: 12px; fill: #566573; }
    .axis { stroke: #5d6d7e; stroke-width: 1.5; }
    .grid { stroke: #d6dbdf; stroke-width: 1; }
  </style>
<rect x="0" y="0" width="760" height="360" fill="#ffffff" />
<text class="title" x="48" y="32">Lattice quantization: target to nearest D4 point</text>
<line class="grid" x1="172.0" y1="58" x2="172.0" y2="312" />
<line class="grid" x1="150" y1="398.0" x2="610" y2="398.0" />
<line class="grid" x1="224.0" y1="58" x2="224.0" y2="312" />
<line class="grid" x1="150" y1="346.0" x2="610" y2="346.0" />
<line class="grid" x1="276.0" y1="58" x2="276.0" y2="312" />
<line class="grid" x1="150" y1="294.0" x2="610" y2="294.0" />
<line class="grid" x1="328.0" y1="58" x2="328.0" y2="312" />
<line class="grid" x1="150" y1="242.0" x2="610" y2="242.0" />
<line class="grid" x1="380.0" y1="58" x2="380.0" y2="312" />
<line class="grid" x1="150" y1="190.0" x2="610" y2="190.0" />
<line class="grid" x1="432.0" y1="58" x2="432.0" y2="312" />
<line class="grid" x1="150" y1="138.0" x2="610" y2="138.0" />
<line class="grid" x1="484.0" y1="58" x2="484.0" y2="312" />
<line class="grid" x1="150" y1="86.0" x2="610" y2="86.0" />
<line class="grid" x1="536.0" y1="58" x2="536.0" y2="312" />
<line class="grid" x1="150" y1="34.0" x2="610" y2="34.0" />
<line class="grid" x1="588.0" y1="58" x2="588.0" y2="312" />
<line class="grid" x1="150" y1="-18.0" x2="610" y2="-18.0" />
<line class="axis" x1="150" y1="190" x2="610" y2="190" />
<line class="axis" x1="380" y1="58" x2="380" y2="312" />
<circle cx="172.0" cy="294.0" r="6.5" fill="#2e8b57" />
<circle cx="172.0" cy="190.0" r="6.5" fill="#2e8b57" />
<circle cx="172.0" cy="86.0" r="6.5" fill="#2e8b57" />
<circle cx="224.0" cy="346.0" r="6.5" fill="#2e8b57" />
<circle cx="224.0" cy="242.0" r="6.5" fill="#2e8b57" />
<circle cx="224.0" cy="138.0" r="6.5" fill="#2e8b57" />
<circle cx="224.0" cy="34.0" r="6.5" fill="#2e8b57" />
<circle cx="276.0" cy="294.0" r="6.5" fill="#2e8b57" />
<circle cx="276.0" cy="190.0" r="6.5" fill="#2e8b57" />
<circle cx="276.0" cy="86.0" r="6.5" fill="#2e8b57" />
<circle cx="328.0" cy="346.0" r="6.5" fill="#2e8b57" />
<circle cx="328.0" cy="242.0" r="6.5" fill="#2e8b57" />
<circle cx="328.0" cy="138.0" r="6.5" fill="#2e8b57" />
<circle cx="328.0" cy="34.0" r="6.5" fill="#2e8b57" />
<circle cx="380.0" cy="294.0" r="6.5" fill="#2e8b57" />
<circle cx="380.0" cy="190.0" r="6.5" fill="#2e8b57" />
<circle cx="380.0" cy="86.0" r="6.5" fill="#2e8b57" />
<circle cx="432.0" cy="346.0" r="6.5" fill="#2e8b57" />
<circle cx="432.0" cy="242.0" r="6.5" fill="#2e8b57" />
<circle cx="432.0" cy="138.0" r="6.5" fill="#2e8b57" />
<circle cx="432.0" cy="34.0" r="6.5" fill="#2e8b57" />
<circle cx="484.0" cy="294.0" r="6.5" fill="#2e8b57" />
<circle cx="484.0" cy="190.0" r="6.5" fill="#2e8b57" />
<circle cx="484.0" cy="86.0" r="6.5" fill="#2e8b57" />
<circle cx="536.0" cy="346.0" r="6.5" fill="#2e8b57" />
<circle cx="536.0" cy="242.0" r="6.5" fill="#2e8b57" />
<circle cx="536.0" cy="138.0" r="6.5" fill="#2e8b57" />
<circle cx="536.0" cy="34.0" r="6.5" fill="#2e8b57" />
<circle cx="588.0" cy="294.0" r="6.5" fill="#2e8b57" />
<circle cx="588.0" cy="190.0" r="6.5" fill="#2e8b57" />
<circle cx="588.0" cy="86.0" r="6.5" fill="#2e8b57" />
<line x1="418.0" y1="285.7" x2="432.0" y2="294.0" stroke="#8e44ad" stroke-width="4" marker-end="url(#arrow)" />
<circle cx="418.0" cy="285.7" r="9" fill="#2f6f9f" />
<circle cx="432.0" cy="294.0" r="10" fill="#d9822b" />
<text class="label" x="430.0" y="273.7">floating-point target</text>
<text class="label" x="444.0" y="314.0">nearest lattice point</text>
<text class="small" x="48" y="334">The drawing is a visible parity slice; the chapter quantizes four-dimensional blocks.</text>
</svg>
