<svg xmlns="http://www.w3.org/2000/svg" width="760" height="360" viewBox="0 0 760 360" role="img">
  <defs>
    <marker id="arrow" markerWidth="8" markerHeight="8" refX="6" refY="3" orient="auto">
      <path d="M0,0 L0,6 L6,3 z" fill="#17202a" />
    </marker>
  </defs>
  <style>
    text { font-family: -apple-system, BlinkMacSystemFont, "Segoe UI", sans-serif; fill: #17202a; }
    .title { font-size: 20px; font-weight: 700; }
    .label { font-size: 13px; }
    .small { font-size: 12px; fill: #566573; }
    .axis { stroke: #5d6d7e; stroke-width: 1.5; }
    .grid { stroke: #d6dbdf; stroke-width: 1; }
  </style>
<rect x="0" y="0" width="760" height="360" fill="#ffffff" />
<text class="title" x="48" y="32">Scaling changes effective lattice spacing</text>
<text class="label" x="64" y="93">beta = 0.5</text>
<line class="axis" x1="190" y1="88" x2="690" y2="88" />
<circle cx="190" cy="88" r="6" fill="#2e8b57" />
<text class="small" text-anchor="middle" x="190" y="112">0</text>
<circle cx="294" cy="88" r="6" fill="#2e8b57" />
<text class="small" text-anchor="middle" x="294" y="112">2</text>
<circle cx="398" cy="88" r="6" fill="#2e8b57" />
<text class="small" text-anchor="middle" x="398" y="112">4</text>
<circle cx="502" cy="88" r="6" fill="#2e8b57" />
<text class="small" text-anchor="middle" x="502" y="112">6</text>
<circle cx="606" cy="88" r="6" fill="#2e8b57" />
<text class="label" x="64" y="183">beta = 1.0</text>
<line class="axis" x1="190" y1="178" x2="690" y2="178" />
<circle cx="190" cy="178" r="6" fill="#2e8b57" />
<text class="small" text-anchor="middle" x="190" y="202">0</text>
<circle cx="242" cy="178" r="6" fill="#2e8b57" />
<text class="small" text-anchor="middle" x="242" y="202">1</text>
<circle cx="294" cy="178" r="6" fill="#2e8b57" />
<text class="small" text-anchor="middle" x="294" y="202">2</text>
<circle cx="346" cy="178" r="6" fill="#2e8b57" />
<text class="small" text-anchor="middle" x="346" y="202">3</text>
<circle cx="398" cy="178" r="6" fill="#2e8b57" />
<circle cx="450" cy="178" r="6" fill="#2e8b57" />
<circle cx="502" cy="178" r="6" fill="#2e8b57" />
<circle cx="554" cy="178" r="6" fill="#2e8b57" />
<circle cx="606" cy="178" r="6" fill="#2e8b57" />
<circle cx="658" cy="178" r="6" fill="#2e8b57" />
<text class="label" x="64" y="273">beta = 2.0</text>
<line class="axis" x1="190" y1="268" x2="690" y2="268" />
<circle cx="190" cy="268" r="6" fill="#2e8b57" />
<text class="small" text-anchor="middle" x="190" y="292">0</text>
<circle cx="216" cy="268" r="6" fill="#2e8b57" />
<text class="small" text-anchor="middle" x="216" y="292">0.5</text>
<circle cx="242" cy="268" r="6" fill="#2e8b57" />
<text class="small" text-anchor="middle" x="242" y="292">1</text>
<circle cx="268" cy="268" r="6" fill="#2e8b57" />
<text class="small" text-anchor="middle" x="268" y="292">1.5</text>
<circle cx="294" cy="268" r="6" fill="#2e8b57" />
<circle cx="320" cy="268" r="6" fill="#2e8b57" />
<circle cx="346" cy="268" r="6" fill="#2e8b57" />
<circle cx="372" cy="268" r="6" fill="#2e8b57" />
<circle cx="398" cy="268" r="6" fill="#2e8b57" />
<circle cx="424" cy="268" r="6" fill="#2e8b57" />
<circle cx="450" cy="268" r="6" fill="#2e8b57" />
<circle cx="476" cy="268" r="6" fill="#2e8b57" />
<circle cx="502" cy="268" r="6" fill="#2e8b57" />
<circle cx="528" cy="268" r="6" fill="#2e8b57" />
<circle cx="554" cy="268" r="6" fill="#2e8b57" />
<circle cx="580" cy="268" r="6" fill="#2e8b57" />
<circle cx="606" cy="268" r="6" fill="#2e8b57" />
<circle cx="632" cy="268" r="6" fill="#2e8b57" />
<circle cx="658" cy="268" r="6" fill="#2e8b57" />
<circle cx="684" cy="268" r="6" fill="#2e8b57" />
<text class="small" x="64" y="334">Larger beta gives a finer reconstruction grid in the original weight units.</text>
</svg>
