<svg xmlns="http://www.w3.org/2000/svg" width="760" height="360" viewBox="0 0 760 360" role="img">
  <style>
    text { font-family: -apple-system, BlinkMacSystemFont, "Segoe UI", sans-serif; fill: #17202a; }
    .title { font-size: 20px; font-weight: 700; }
    .axis { stroke: #5d6d7e; stroke-width: 1; }
    .grid { stroke: #d6dbdf; stroke-width: 1; }
    .float { fill: #2f6f9f; }
    .quant { fill: #d9822b; }
    .error { fill: #8e44ad; }
    .label { font-size: 13px; }
    .small { font-size: 12px; fill: #566573; }
  </style>

  <rect x="0" y="0" width="760" height="360" fill="#ffffff" />
  <text class="title" x="64" y="28">Floating-point weights</text>
  <line class="axis" x1="64" y1="159.0" x2="736" y2="159.0" />
  <line class="axis" x1="64" y1="42" x2="64" y2="302" />
  <line class="grid" x1="64" y1="43.0" x2="736" y2="43.0" />
  <line class="grid" x1="64" y1="275.0" x2="736" y2="275.0" />
  <text class="small" x="26" y="47.0">2</text>
  <text class="small" x="21" y="163.0">0</text>
  <text class="small" x="20" y="279.0">-2</text>

<rect class="float" x="89.0" y="116.7" width="34.0" height="42.3" rx="3" />
<text class="label" text-anchor="middle" x="106.0" y="332">1</text>
<text class="small" text-anchor="middle" x="106.0" y="108.7">0.73</text>
<rect class="float" x="173.0" y="159.0" width="34.0" height="106.7" rx="3" />
<text class="label" text-anchor="middle" x="190.0" y="332">2</text>
<text class="small" text-anchor="middle" x="190.0" y="283.7">-1.84</text>
<rect class="float" x="257.0" y="36.6" width="34.0" height="122.4" rx="3" />
<text class="label" text-anchor="middle" x="274.0" y="332">3</text>
<text class="small" text-anchor="middle" x="274.0" y="28.6">2.11</text>
<rect class="float" x="341.0" y="159.0" width="34.0" height="26.1" rx="3" />
<text class="label" text-anchor="middle" x="358.0" y="332">4</text>
<text class="small" text-anchor="middle" x="358.0" y="203.1">-0.45</text>
<rect class="float" x="425.0" y="85.3" width="34.0" height="73.7" rx="3" />
<text class="label" text-anchor="middle" x="442.0" y="332">5</text>
<text class="small" text-anchor="middle" x="442.0" y="77.3">1.27</text>
<rect class="float" x="509.0" y="154.4" width="34.0" height="4.6" rx="3" />
<text class="label" text-anchor="middle" x="526.0" y="332">6</text>
<text class="small" text-anchor="middle" x="526.0" y="146.4">0.08</text>
<rect class="float" x="593.0" y="159.0" width="34.0" height="136.9" rx="3" />
<text class="label" text-anchor="middle" x="610.0" y="332">7</text>
<text class="small" text-anchor="middle" x="610.0" y="313.9">-2.36</text>
<rect class="float" x="677.0" y="-23.1" width="34.0" height="182.1" rx="3" />
<text class="label" text-anchor="middle" x="694.0" y="332">8</text>
<text class="small" text-anchor="middle" x="694.0" y="-31.1">3.14</text>
<text class="small" x="64" y="352">Coordinate index</text>
</svg>
