<svg xmlns="http://www.w3.org/2000/svg" width="760" height="360" viewBox="0 0 760 360" role="img">
  <defs>
    <marker id="arrow" markerWidth="8" markerHeight="8" refX="6" refY="3" orient="auto">
      <path d="M0,0 L0,6 L6,3 z" fill="#17202a" />
    </marker>
  </defs>
  <style>
    text { font-family: -apple-system, BlinkMacSystemFont, "Segoe UI", sans-serif; fill: #17202a; }
    .title { font-size: 20px; font-weight: 700; }
    .label { font-size: 13px; }
    .small { font-size: 12px; fill: #566573; }
  </style>
<rect x="0" y="0" width="760" height="360" fill="#ffffff" />
<text class="title" x="48" y="32">GPU tile sketch</text>
<rect x="82" y="76" width="596" height="220" rx="8" fill="#f8f9f9" stroke="#d6dbdf" stroke-width="2" />
<rect x="124" y="112" width="196" height="62" rx="7" fill="#2f6f9f" opacity="0.14" stroke="#2f6f9f" />
<text class="label" text-anchor="middle" x="222" y="148">build T_x in shared memory</text>
<rect x="420" y="98" width="190" height="30" rx="5" fill="#2e8b57" opacity="0.14" stroke="#2e8b57" />
<text class="small" text-anchor="middle" x="515" y="118">compressed row tile 0</text>
<rect x="420" y="142" width="190" height="30" rx="5" fill="#2e8b57" opacity="0.14" stroke="#2e8b57" />
<text class="small" text-anchor="middle" x="515" y="162">compressed row tile 1</text>
<rect x="420" y="186" width="190" height="30" rx="5" fill="#2e8b57" opacity="0.14" stroke="#2e8b57" />
<text class="small" text-anchor="middle" x="515" y="206">compressed row tile 2</text>
<rect x="420" y="230" width="190" height="30" rx="5" fill="#2e8b57" opacity="0.14" stroke="#2e8b57" />
<text class="small" text-anchor="middle" x="515" y="250">compressed row tile 3</text>
<line x1="320" y1="143" x2="420" y2="162" stroke="#17202a" stroke-width="3" marker-end="url(#arrow)" />
<text class="small" x="64" y="334">A thread block can reuse activation tables across many row outputs.</text>
</svg>
