<svg xmlns="http://www.w3.org/2000/svg" width="760" height="360" viewBox="0 0 760 360" role="img">
  <defs>
    <marker id="arrow" markerWidth="8" markerHeight="8" refX="6" refY="3" orient="auto">
      <path d="M0,0 L0,6 L6,3 z" fill="#17202a" />
    </marker>
  </defs>
  <style>
    text { font-family: -apple-system, BlinkMacSystemFont, "Segoe UI", sans-serif; fill: #17202a; }
    .title { font-size: 20px; font-weight: 700; }
    .label { font-size: 13px; }
    .small { font-size: 12px; fill: #566573; }
  </style>
<rect x="0" y="0" width="760" height="360" fill="#ffffff" />
<text class="title" x="48" y="32">8 x 8 matrix tiled into D4 blocks</text>
<rect x="100" y="72" width="49" height="23" fill="#2f6f9f" opacity="0.16" stroke="#d6dbdf" />
<rect x="152" y="72" width="49" height="23" fill="#2f6f9f" opacity="0.16" stroke="#d6dbdf" />
<rect x="204" y="72" width="49" height="23" fill="#2f6f9f" opacity="0.16" stroke="#d6dbdf" />
<rect x="256" y="72" width="49" height="23" fill="#2f6f9f" opacity="0.16" stroke="#d6dbdf" />
<rect x="308" y="72" width="49" height="23" fill="#2e8b57" opacity="0.16" stroke="#d6dbdf" />
<rect x="360" y="72" width="49" height="23" fill="#2e8b57" opacity="0.16" stroke="#d6dbdf" />
<rect x="412" y="72" width="49" height="23" fill="#2e8b57" opacity="0.16" stroke="#d6dbdf" />
<rect x="464" y="72" width="49" height="23" fill="#2e8b57" opacity="0.16" stroke="#d6dbdf" />
<rect x="100" y="98" width="49" height="23" fill="#2f6f9f" opacity="0.16" stroke="#d6dbdf" />
<rect x="152" y="98" width="49" height="23" fill="#2f6f9f" opacity="0.16" stroke="#d6dbdf" />
<rect x="204" y="98" width="49" height="23" fill="#2f6f9f" opacity="0.16" stroke="#d6dbdf" />
<rect x="256" y="98" width="49" height="23" fill="#2f6f9f" opacity="0.16" stroke="#d6dbdf" />
<rect x="308" y="98" width="49" height="23" fill="#2e8b57" opacity="0.16" stroke="#d6dbdf" />
<rect x="360" y="98" width="49" height="23" fill="#2e8b57" opacity="0.16" stroke="#d6dbdf" />
<rect x="412" y="98" width="49" height="23" fill="#2e8b57" opacity="0.16" stroke="#d6dbdf" />
<rect x="464" y="98" width="49" height="23" fill="#2e8b57" opacity="0.16" stroke="#d6dbdf" />
<rect x="100" y="124" width="49" height="23" fill="#2f6f9f" opacity="0.16" stroke="#d6dbdf" />
<rect x="152" y="124" width="49" height="23" fill="#2f6f9f" opacity="0.16" stroke="#d6dbdf" />
<rect x="204" y="124" width="49" height="23" fill="#2f6f9f" opacity="0.16" stroke="#d6dbdf" />
<rect x="256" y="124" width="49" height="23" fill="#2f6f9f" opacity="0.16" stroke="#d6dbdf" />
<rect x="308" y="124" width="49" height="23" fill="#2e8b57" opacity="0.16" stroke="#d6dbdf" />
<rect x="360" y="124" width="49" height="23" fill="#2e8b57" opacity="0.16" stroke="#d6dbdf" />
<rect x="412" y="124" width="49" height="23" fill="#2e8b57" opacity="0.16" stroke="#d6dbdf" />
<rect x="464" y="124" width="49" height="23" fill="#2e8b57" opacity="0.16" stroke="#d6dbdf" />
<rect x="100" y="150" width="49" height="23" fill="#2f6f9f" opacity="0.16" stroke="#d6dbdf" />
<rect x="152" y="150" width="49" height="23" fill="#2f6f9f" opacity="0.16" stroke="#d6dbdf" />
<rect x="204" y="150" width="49" height="23" fill="#2f6f9f" opacity="0.16" stroke="#d6dbdf" />
<rect x="256" y="150" width="49" height="23" fill="#2f6f9f" opacity="0.16" stroke="#d6dbdf" />
<rect x="308" y="150" width="49" height="23" fill="#2e8b57" opacity="0.16" stroke="#d6dbdf" />
<rect x="360" y="150" width="49" height="23" fill="#2e8b57" opacity="0.16" stroke="#d6dbdf" />
<rect x="412" y="150" width="49" height="23" fill="#2e8b57" opacity="0.16" stroke="#d6dbdf" />
<rect x="464" y="150" width="49" height="23" fill="#2e8b57" opacity="0.16" stroke="#d6dbdf" />
<rect x="100" y="176" width="49" height="23" fill="#2f6f9f" opacity="0.16" stroke="#d6dbdf" />
<rect x="152" y="176" width="49" height="23" fill="#2f6f9f" opacity="0.16" stroke="#d6dbdf" />
<rect x="204" y="176" width="49" height="23" fill="#2f6f9f" opacity="0.16" stroke="#d6dbdf" />
<rect x="256" y="176" width="49" height="23" fill="#2f6f9f" opacity="0.16" stroke="#d6dbdf" />
<rect x="308" y="176" width="49" height="23" fill="#2e8b57" opacity="0.16" stroke="#d6dbdf" />
<rect x="360" y="176" width="49" height="23" fill="#2e8b57" opacity="0.16" stroke="#d6dbdf" />
<rect x="412" y="176" width="49" height="23" fill="#2e8b57" opacity="0.16" stroke="#d6dbdf" />
<rect x="464" y="176" width="49" height="23" fill="#2e8b57" opacity="0.16" stroke="#d6dbdf" />
<rect x="100" y="202" width="49" height="23" fill="#2f6f9f" opacity="0.16" stroke="#d6dbdf" />
<rect x="152" y="202" width="49" height="23" fill="#2f6f9f" opacity="0.16" stroke="#d6dbdf" />
<rect x="204" y="202" width="49" height="23" fill="#2f6f9f" opacity="0.16" stroke="#d6dbdf" />
<rect x="256" y="202" width="49" height="23" fill="#2f6f9f" opacity="0.16" stroke="#d6dbdf" />
<rect x="308" y="202" width="49" height="23" fill="#2e8b57" opacity="0.16" stroke="#d6dbdf" />
<rect x="360" y="202" width="49" height="23" fill="#2e8b57" opacity="0.16" stroke="#d6dbdf" />
<rect x="412" y="202" width="49" height="23" fill="#2e8b57" opacity="0.16" stroke="#d6dbdf" />
<rect x="464" y="202" width="49" height="23" fill="#2e8b57" opacity="0.16" stroke="#d6dbdf" />
<rect x="100" y="228" width="49" height="23" fill="#2f6f9f" opacity="0.16" stroke="#d6dbdf" />
<rect x="152" y="228" width="49" height="23" fill="#2f6f9f" opacity="0.16" stroke="#d6dbdf" />
<rect x="204" y="228" width="49" height="23" fill="#2f6f9f" opacity="0.16" stroke="#d6dbdf" />
<rect x="256" y="228" width="49" height="23" fill="#2f6f9f" opacity="0.16" stroke="#d6dbdf" />
<rect x="308" y="228" width="49" height="23" fill="#2e8b57" opacity="0.16" stroke="#d6dbdf" />
<rect x="360" y="228" width="49" height="23" fill="#2e8b57" opacity="0.16" stroke="#d6dbdf" />
<rect x="412" y="228" width="49" height="23" fill="#2e8b57" opacity="0.16" stroke="#d6dbdf" />
<rect x="464" y="228" width="49" height="23" fill="#2e8b57" opacity="0.16" stroke="#d6dbdf" />
<rect x="100" y="254" width="49" height="23" fill="#2f6f9f" opacity="0.16" stroke="#d6dbdf" />
<rect x="152" y="254" width="49" height="23" fill="#2f6f9f" opacity="0.16" stroke="#d6dbdf" />
<rect x="204" y="254" width="49" height="23" fill="#2f6f9f" opacity="0.16" stroke="#d6dbdf" />
<rect x="256" y="254" width="49" height="23" fill="#2f6f9f" opacity="0.16" stroke="#d6dbdf" />
<rect x="308" y="254" width="49" height="23" fill="#2e8b57" opacity="0.16" stroke="#d6dbdf" />
<rect x="360" y="254" width="49" height="23" fill="#2e8b57" opacity="0.16" stroke="#d6dbdf" />
<rect x="412" y="254" width="49" height="23" fill="#2e8b57" opacity="0.16" stroke="#d6dbdf" />
<rect x="464" y="254" width="49" height="23" fill="#2e8b57" opacity="0.16" stroke="#d6dbdf" />
<text class="label" x="138" y="306">block position 0 uses T_x1</text>
<text class="label" x="382" y="306">block position 1 uses T_x2</text>
<text class="small" x="64" y="334">Every row has two encoded D4 blocks, aligned with two activation blocks.</text>
</svg>
