<svg xmlns="http://www.w3.org/2000/svg" width="760" height="360" viewBox="0 0 760 360" role="img">
  <style>
    text { font-family: -apple-system, BlinkMacSystemFont, "Segoe UI", sans-serif; fill: #17202a; }
    .title { font-size: 20px; font-weight: 700; }
    .label { font-size: 13px; }
    .small { font-size: 12px; fill: #566573; }
    .axis { stroke: #5d6d7e; stroke-width: 1.5; }
    .grid { stroke: #d6dbdf; stroke-width: 1; }
  </style>
<rect x="0" y="0" width="760" height="360" fill="#ffffff" />
<text class="title" x="48" y="32">Integer number line</text>
<line class="axis" x1="48" y1="178" x2="720" y2="178" />
<line class="axis" x1="58.0" y1="169.0" x2="58.0" y2="187.0" />
<text class="small" text-anchor="middle" x="58.0" y="212">-8</text>
<line class="axis" x1="83.8" y1="173.0" x2="83.8" y2="183.0" />
<line class="axis" x1="109.5" y1="173.0" x2="109.5" y2="183.0" />
<text class="small" text-anchor="middle" x="109.5" y="212">-6</text>
<line class="axis" x1="135.3" y1="173.0" x2="135.3" y2="183.0" />
<line class="axis" x1="161.0" y1="169.0" x2="161.0" y2="187.0" />
<text class="small" text-anchor="middle" x="161.0" y="212">-4</text>
<line class="axis" x1="186.8" y1="173.0" x2="186.8" y2="183.0" />
<line class="axis" x1="212.6" y1="173.0" x2="212.6" y2="183.0" />
<text class="small" text-anchor="middle" x="212.6" y="212">-2</text>
<line class="axis" x1="238.3" y1="173.0" x2="238.3" y2="183.0" />
<line class="axis" x1="264.1" y1="169.0" x2="264.1" y2="187.0" />
<text class="small" text-anchor="middle" x="264.1" y="212">0</text>
<line class="axis" x1="289.8" y1="173.0" x2="289.8" y2="183.0" />
<line class="axis" x1="315.6" y1="173.0" x2="315.6" y2="183.0" />
<text class="small" text-anchor="middle" x="315.6" y="212">2</text>
<line class="axis" x1="341.4" y1="173.0" x2="341.4" y2="183.0" />
<line class="axis" x1="367.1" y1="169.0" x2="367.1" y2="187.0" />
<text class="small" text-anchor="middle" x="367.1" y="212">4</text>
<line class="axis" x1="392.9" y1="173.0" x2="392.9" y2="183.0" />
<line class="axis" x1="418.6" y1="173.0" x2="418.6" y2="183.0" />
<text class="small" text-anchor="middle" x="418.6" y="212">6</text>
<line class="axis" x1="444.4" y1="173.0" x2="444.4" y2="183.0" />
<line class="axis" x1="470.2" y1="169.0" x2="470.2" y2="187.0" />
<text class="small" text-anchor="middle" x="470.2" y="212">8</text>
<line class="axis" x1="495.9" y1="173.0" x2="495.9" y2="183.0" />
<line class="axis" x1="521.7" y1="173.0" x2="521.7" y2="183.0" />
<text class="small" text-anchor="middle" x="521.7" y="212">10</text>
<line class="axis" x1="547.4" y1="173.0" x2="547.4" y2="183.0" />
<line class="axis" x1="573.2" y1="169.0" x2="573.2" y2="187.0" />
<text class="small" text-anchor="middle" x="573.2" y="212">12</text>
<line class="axis" x1="599.0" y1="173.0" x2="599.0" y2="183.0" />
<line class="axis" x1="624.7" y1="173.0" x2="624.7" y2="183.0" />
<text class="small" text-anchor="middle" x="624.7" y="212">14</text>
<line class="axis" x1="650.5" y1="173.0" x2="650.5" y2="183.0" />
<line class="axis" x1="676.2" y1="169.0" x2="676.2" y2="187.0" />
<text class="small" text-anchor="middle" x="676.2" y="212">16</text>
<line class="axis" x1="702.0" y1="173.0" x2="702.0" y2="183.0" />
<circle cx="83.8" cy="178" r="11" fill="#d9822b" />
<text class="label" text-anchor="middle" x="83.8" y="112">-7</text>
<line stroke="#d9822b" stroke-width="2" x1="83.8" y1="120" x2="83.8" y2="163" />
<circle cx="702.0" cy="178" r="11" fill="#d9822b" />
<text class="label" text-anchor="middle" x="702.0" y="112">17</text>
<line stroke="#d9822b" stroke-width="2" x1="702.0" y1="120" x2="702.0" y2="163" />
<text class="small" x="48" y="300">Both highlighted integers have remainder 1 modulo 4.</text>
</svg>
