<svg xmlns="http://www.w3.org/2000/svg" width="760" height="360" viewBox="0 0 760 360" role="img">
  <style>
    text { font-family: -apple-system, BlinkMacSystemFont, "Segoe UI", sans-serif; fill: #17202a; }
    .title { font-size: 20px; font-weight: 700; }
    .label { font-size: 13px; }
    .small { font-size: 12px; fill: #566573; }
    .axis { stroke: #5d6d7e; stroke-width: 1.5; }
    .grid { stroke: #d6dbdf; stroke-width: 1; }
  </style>
<rect x="0" y="0" width="760" height="360" fill="#ffffff" />
<text class="title" x="48" y="32">Modulo-4 clock</text>
<circle cx="380.0" cy="178" r="98" fill="none" stroke="#d6dbdf" stroke-width="3" />
<circle cx="380.0" cy="80.0" r="24" fill="#2f6f9f" />
<text class="title" text-anchor="middle" x="380.0" y="87.0" fill="#ffffff">0</text>
<circle cx="478.0" cy="178.0" r="24" fill="#d9822b" />
<text class="title" text-anchor="middle" x="478.0" y="185.0" fill="#ffffff">1</text>
<circle cx="380.0" cy="276.0" r="24" fill="#2e8b57" />
<text class="title" text-anchor="middle" x="380.0" y="283.0" fill="#ffffff">2</text>
<circle cx="282.0" cy="178.0" r="24" fill="#8e44ad" />
<text class="title" text-anchor="middle" x="282.0" y="185.0" fill="#ffffff">3</text>
<path d="M 384 78 A 100 100 0 0 1 484 178" fill="none" stroke="#17202a" stroke-width="2" marker-end="url(#arrow)" />
<path d="M 484 178 A 100 100 0 0 1 384 278" fill="none" stroke="#17202a" stroke-width="2" marker-end="url(#arrow)" />
<path d="M 384 278 A 100 100 0 0 1 284 178" fill="none" stroke="#17202a" stroke-width="2" marker-end="url(#arrow)" />
<path d="M 284 178 A 100 100 0 0 1 384 78" fill="none" stroke="#17202a" stroke-width="2" marker-end="url(#arrow)" />
<defs><marker id="arrow" markerWidth="8" markerHeight="8" refX="5" refY="3" orient="auto"><path d="M0,0 L0,6 L6,3 z" fill="#17202a" /></marker></defs>
<text class="small" text-anchor="middle" x="380" y="326">Counting wraps after 3: 0, 1, 2, 3, 0, ...</text>
</svg>
