<svg xmlns="http://www.w3.org/2000/svg" width="760" height="360" viewBox="0 0 760 360" role="img">
  <style>
    text { font-family: -apple-system, BlinkMacSystemFont, "Segoe UI", sans-serif; fill: #17202a; }
    .title { font-size: 20px; font-weight: 700; }
    .label { font-size: 13px; }
    .small { font-size: 12px; fill: #566573; }
    .axis { stroke: #5d6d7e; stroke-width: 1.5; }
    .grid { stroke: #d6dbdf; stroke-width: 1; }
  </style>
<rect x="0" y="0" width="760" height="360" fill="#ffffff" />
<text class="title" x="48" y="32">Modulo-4 classes on the number line</text>
<line class="axis" x1="48" y1="178" x2="720" y2="178" />
<circle cx="58.0" cy="178" r="9" fill="#2f6f9f" />
<circle cx="83.8" cy="178" r="9" fill="#d9822b" />
<text class="small" text-anchor="middle" x="83.8" y="158">-7</text>
<circle cx="109.5" cy="178" r="9" fill="#2e8b57" />
<circle cx="135.3" cy="178" r="9" fill="#8e44ad" />
<circle cx="161.0" cy="178" r="9" fill="#2f6f9f" />
<circle cx="186.8" cy="178" r="9" fill="#d9822b" />
<text class="small" text-anchor="middle" x="186.8" y="158">-3</text>
<circle cx="212.6" cy="178" r="9" fill="#2e8b57" />
<circle cx="238.3" cy="178" r="9" fill="#8e44ad" />
<circle cx="264.1" cy="178" r="9" fill="#2f6f9f" />
<circle cx="289.8" cy="178" r="9" fill="#d9822b" />
<text class="small" text-anchor="middle" x="289.8" y="158">1</text>
<circle cx="315.6" cy="178" r="9" fill="#2e8b57" />
<circle cx="341.4" cy="178" r="9" fill="#8e44ad" />
<circle cx="367.1" cy="178" r="9" fill="#2f6f9f" />
<circle cx="392.9" cy="178" r="9" fill="#d9822b" />
<text class="small" text-anchor="middle" x="392.9" y="158">5</text>
<circle cx="418.6" cy="178" r="9" fill="#2e8b57" />
<circle cx="444.4" cy="178" r="9" fill="#8e44ad" />
<circle cx="470.2" cy="178" r="9" fill="#2f6f9f" />
<circle cx="495.9" cy="178" r="9" fill="#d9822b" />
<text class="small" text-anchor="middle" x="495.9" y="158">9</text>
<circle cx="521.7" cy="178" r="9" fill="#2e8b57" />
<circle cx="547.4" cy="178" r="9" fill="#8e44ad" />
<circle cx="573.2" cy="178" r="9" fill="#2f6f9f" />
<circle cx="599.0" cy="178" r="9" fill="#d9822b" />
<text class="small" text-anchor="middle" x="599.0" y="158">13</text>
<circle cx="624.7" cy="178" r="9" fill="#2e8b57" />
<circle cx="650.5" cy="178" r="9" fill="#8e44ad" />
<circle cx="676.2" cy="178" r="9" fill="#2f6f9f" />
<circle cx="702.0" cy="178" r="9" fill="#d9822b" />
<text class="small" text-anchor="middle" x="702.0" y="158">17</text>
<circle cx="82" cy="292" r="8" fill="#2f6f9f" />
<text class="small" x="98" y="296">remainder 0</text>
<circle cx="232" cy="292" r="8" fill="#d9822b" />
<text class="small" x="248" y="296">remainder 1</text>
<circle cx="382" cy="292" r="8" fill="#2e8b57" />
<text class="small" x="398" y="296">remainder 2</text>
<circle cx="532" cy="292" r="8" fill="#8e44ad" />
<text class="small" x="548" y="296">remainder 3</text>
</svg>
