<svg xmlns="http://www.w3.org/2000/svg" width="760" height="360" viewBox="0 0 760 360" role="img">
  <defs>
    <marker id="arrow" markerWidth="8" markerHeight="8" refX="6" refY="3" orient="auto">
      <path d="M0,0 L0,6 L6,3 z" fill="#17202a" />
    </marker>
  </defs>
  <style>
    text { font-family: -apple-system, BlinkMacSystemFont, "Segoe UI", sans-serif; fill: #17202a; }
    .title { font-size: 20px; font-weight: 700; }
    .label { font-size: 13px; }
    .small { font-size: 12px; fill: #566573; }
    .axis { stroke: #5d6d7e; stroke-width: 1.5; }
    .grid { stroke: #d6dbdf; stroke-width: 1; }
  </style>
<rect x="0" y="0" width="760" height="360" fill="#ffffff" />
<text class="title" x="48" y="32">Dot product depends on angle</text>
<line class="grid" x1="206.0" y1="54" x2="206.0" y2="312" />
<line class="grid" x1="148" y1="374.0" x2="612" y2="374.0" />
<line class="grid" x1="264.0" y1="54" x2="264.0" y2="312" />
<line class="grid" x1="148" y1="316.0" x2="612" y2="316.0" />
<line class="grid" x1="322.0" y1="54" x2="322.0" y2="312" />
<line class="grid" x1="148" y1="258.0" x2="612" y2="258.0" />
<line class="grid" x1="380.0" y1="54" x2="380.0" y2="312" />
<line class="grid" x1="148" y1="200.0" x2="612" y2="200.0" />
<line class="grid" x1="438.0" y1="54" x2="438.0" y2="312" />
<line class="grid" x1="148" y1="142.0" x2="612" y2="142.0" />
<line class="grid" x1="496.0" y1="54" x2="496.0" y2="312" />
<line class="grid" x1="148" y1="84.0" x2="612" y2="84.0" />
<line class="grid" x1="554.0" y1="54" x2="554.0" y2="312" />
<line class="grid" x1="148" y1="26.0" x2="612" y2="26.0" />
<line class="axis" x1="148" y1="200" x2="612" y2="200" />
<line class="axis" x1="380" y1="54" x2="380" y2="312" />
<line x1="380" y1="200" x2="422.3" y2="306.7" stroke="#2f6f9f" stroke-width="4" marker-end="url(#arrow)" />
<circle cx="422.3" cy="306.7" r="5" fill="#2f6f9f" />
<text class="label" text-anchor="middle" x="422.3" y="328.7">w slice</text>
<line x1="380" y1="200" x2="496.0" y2="142.0" stroke="#d9822b" stroke-width="4" marker-end="url(#arrow)" />
<circle cx="496.0" cy="142.0" r="5" fill="#d9822b" />
<text class="label" text-anchor="middle" x="496.0" y="132.0">x slice</text>
<path d="M 422 180 A 56 56 0 0 1 398 254" fill="none" stroke="#8e44ad" stroke-width="3" />
<text class="label" x="432" y="222">angle</text>
<text class="small" x="48" y="334">A dot product is positive, zero, or negative depending on directional alignment.</text>
</svg>
