<svg xmlns="http://www.w3.org/2000/svg" width="760" height="360" viewBox="0 0 760 360" role="img">
  <defs>
    <marker id="arrow" markerWidth="8" markerHeight="8" refX="6" refY="3" orient="auto">
      <path d="M0,0 L0,6 L6,3 z" fill="#17202a" />
    </marker>
  </defs>
  <style>
    text { font-family: -apple-system, BlinkMacSystemFont, "Segoe UI", sans-serif; fill: #17202a; }
    .title { font-size: 20px; font-weight: 700; }
    .label { font-size: 13px; }
    .small { font-size: 12px; fill: #566573; }
    .axis { stroke: #5d6d7e; stroke-width: 1.5; }
    .grid { stroke: #d6dbdf; stroke-width: 1; }
  </style>
<rect x="0" y="0" width="760" height="360" fill="#ffffff" />
<text class="title" x="48" y="32">Euclidean norm as distance from the origin</text>
<line class="grid" x1="148.0" y1="54" x2="148.0" y2="312" />
<line class="grid" x1="148" y1="417.0" x2="612" y2="417.0" />
<line class="grid" x1="206.0" y1="54" x2="206.0" y2="312" />
<line class="grid" x1="148" y1="359.0" x2="612" y2="359.0" />
<line class="grid" x1="264.0" y1="54" x2="264.0" y2="312" />
<line class="grid" x1="148" y1="301.0" x2="612" y2="301.0" />
<line class="grid" x1="322.0" y1="54" x2="322.0" y2="312" />
<line class="grid" x1="148" y1="243.0" x2="612" y2="243.0" />
<line class="grid" x1="380.0" y1="54" x2="380.0" y2="312" />
<line class="grid" x1="148" y1="185.0" x2="612" y2="185.0" />
<line class="grid" x1="438.0" y1="54" x2="438.0" y2="312" />
<line class="grid" x1="148" y1="127.0" x2="612" y2="127.0" />
<line class="grid" x1="496.0" y1="54" x2="496.0" y2="312" />
<line class="grid" x1="148" y1="69.0" x2="612" y2="69.0" />
<line class="grid" x1="554.0" y1="54" x2="554.0" y2="312" />
<line class="grid" x1="148" y1="11.0" x2="612" y2="11.0" />
<line class="grid" x1="612.0" y1="54" x2="612.0" y2="312" />
<line class="grid" x1="148" y1="-47.0" x2="612" y2="-47.0" />
<line class="axis" x1="148" y1="185" x2="612" y2="185" />
<line class="axis" x1="380" y1="54" x2="380" y2="312" />
<circle cx="380" cy="185" r="58" fill="none" stroke="#d6dbdf" stroke-width="3" />
<text class="small" x="444" y="180">norm 1</text>
<circle cx="380" cy="185" r="116" fill="none" stroke="#d6dbdf" stroke-width="3" />
<text class="small" x="502" y="180">norm 2</text>
<circle cx="380" cy="185" r="174" fill="none" stroke="#d6dbdf" stroke-width="3" />
<text class="small" x="560" y="180">norm 3</text>
<line x1="380" y1="185" x2="496.0" y2="127.0" stroke="#d9822b" stroke-width="4" marker-end="url(#arrow)" />
<circle cx="496.0" cy="127.0" r="5" fill="#d9822b" />
<text class="label" text-anchor="middle" x="496.0" y="117.0">x slice</text>
</svg>
