<svg xmlns="http://www.w3.org/2000/svg" width="760" height="360" viewBox="0 0 760 360" role="img">
  <defs>
    <marker id="arrow" markerWidth="8" markerHeight="8" refX="6" refY="3" orient="auto">
      <path d="M0,0 L0,6 L6,3 z" fill="#17202a" />
    </marker>
  </defs>
  <style>
    text { font-family: -apple-system, BlinkMacSystemFont, "Segoe UI", sans-serif; fill: #17202a; }
    .title { font-size: 20px; font-weight: 700; }
    .label { font-size: 13px; }
    .small { font-size: 12px; fill: #566573; }
  </style>
<rect x="0" y="0" width="760" height="360" fill="#ffffff" />
<text class="title" x="48" y="32">Overload is a coefficient outside the digit range</text>
<line x1="90" y1="286" x2="650" y2="286" stroke="#17202a" stroke-width="2" />
<line x1="90" y1="82" x2="90" y2="286" stroke="#17202a" stroke-width="2" />
<line x1="90" y1="195.3" x2="650" y2="195.3" stroke="#d9822b" stroke-width="2" stroke-dasharray="6 5" />
<text class="small" x="655" y="199.3">threshold</text>
<rect x="120" y="172.7" width="80" height="113.3" fill="#d9822b" opacity="0.86" />
<text class="label" text-anchor="middle" x="160.0" y="311">level 0</text>
<text class="small" text-anchor="middle" x="160.0" y="164.7">10.00</text>
<rect x="260" y="172.7" width="80" height="113.3" fill="#d9822b" opacity="0.86" />
<text class="label" text-anchor="middle" x="300.0" y="311">level 1</text>
<text class="small" text-anchor="middle" x="300.0" y="164.7">10.00</text>
<rect x="400" y="93.3" width="80" height="192.7" fill="#d9822b" opacity="0.86" />
<text class="label" text-anchor="middle" x="440.0" y="311">level 2</text>
<text class="small" text-anchor="middle" x="440.0" y="85.3">17.00</text>
<rect x="540" y="195.3" width="80" height="90.7" fill="#d9822b" opacity="0.86" />
<text class="label" text-anchor="middle" x="580.0" y="311">level 3</text>
<text class="small" text-anchor="middle" x="580.0" y="187.3">8.00</text>
<text class="small" x="64" y="334">Bars show max absolute residual after each level for the overloaded second block.</text>
</svg>
