<svg xmlns="http://www.w3.org/2000/svg" width="760" height="360" viewBox="0 0 760 360" role="img">
  <defs>
    <marker id="arrow" markerWidth="8" markerHeight="8" refX="6" refY="3" orient="auto">
      <path d="M0,0 L0,6 L6,3 z" fill="#17202a" />
    </marker>
  </defs>
  <style>
    text { font-family: -apple-system, BlinkMacSystemFont, "Segoe UI", sans-serif; fill: #17202a; }
    .title { font-size: 20px; font-weight: 700; }
    .label { font-size: 13px; }
    .small { font-size: 12px; fill: #566573; }
    .axis { stroke: #5d6d7e; stroke-width: 1.5; }
    .grid { stroke: #d6dbdf; stroke-width: 1; }
  </style>
<rect x="0" y="0" width="760" height="360" fill="#ffffff" />
<text class="title" x="48" y="32">Rate-distortion intuition</text>
<line class="axis" x1="94" y1="282" x2="654" y2="282" />
<line class="axis" x1="94" y1="282" x2="94" y2="72" />
<path d="M 174 112 L 279 164 L 384 200 L 489 226 L 594 242" fill="none" stroke="#8e44ad" stroke-width="3" />
<circle cx="174" cy="112" r="6" fill="#8e44ad" />
<text class="small" text-anchor="middle" x="174" y="306">16</text>
<circle cx="279" cy="164" r="6" fill="#8e44ad" />
<text class="small" text-anchor="middle" x="279" y="306">32</text>
<circle cx="384" cy="200" r="6" fill="#8e44ad" />
<text class="small" text-anchor="middle" x="384" y="306">64</text>
<circle cx="489" cy="226" r="6" fill="#8e44ad" />
<text class="small" text-anchor="middle" x="489" y="306">128</text>
<circle cx="594" cy="242" r="6" fill="#8e44ad" />
<text class="small" text-anchor="middle" x="594" y="306">256</text>
<text class="small" x="250" y="330">Codebook size K</text>
<text class="small" transform="translate(34 242) rotate(-90)">Distortion</text>
<text class="small" x="120" y="72">More codewords: lower distortion, more bits and search.</text>
</svg>
