<svg xmlns="http://www.w3.org/2000/svg" width="760" height="360" viewBox="0 0 760 360" role="img">
  <defs>
    <marker id="arrow" markerWidth="8" markerHeight="8" refX="6" refY="3" orient="auto">
      <path d="M0,0 L0,6 L6,3 z" fill="#17202a" />
    </marker>
  </defs>
  <style>
    text { font-family: -apple-system, BlinkMacSystemFont, "Segoe UI", sans-serif; fill: #17202a; }
    .title { font-size: 20px; font-weight: 700; }
    .label { font-size: 13px; }
    .small { font-size: 12px; fill: #566573; }
  </style>
<rect x="0" y="0" width="760" height="360" fill="#ffffff" />
<text class="title" x="48" y="32">Accumulate dot product from indices</text>
<rect x="68" y="92" width="94" height="48" rx="7" fill="#f8f9f9" stroke="#2f6f9f" stroke-width="2" />
<text class="label" text-anchor="middle" x="115.0" y="121.0">b0</text>
<rect x="68" y="178" width="94" height="48" rx="7" fill="#f8f9f9" stroke="#2e8b57" stroke-width="2" />
<text class="label" text-anchor="middle" x="115.0" y="207.0">T_x[b0]</text>
<line x1="115" y1="140" x2="115" y2="178" stroke="#17202a" stroke-width="2" marker-end="url(#arrow)" />
<rect x="206" y="92" width="94" height="48" rx="7" fill="#f8f9f9" stroke="#2f6f9f" stroke-width="2" />
<text class="label" text-anchor="middle" x="253.0" y="121.0">b1</text>
<rect x="206" y="178" width="94" height="48" rx="7" fill="#f8f9f9" stroke="#2e8b57" stroke-width="2" />
<text class="label" text-anchor="middle" x="253.0" y="207.0">T_x[b1]</text>
<line x1="253" y1="140" x2="253" y2="178" stroke="#17202a" stroke-width="2" marker-end="url(#arrow)" />
<rect x="344" y="92" width="94" height="48" rx="7" fill="#f8f9f9" stroke="#2f6f9f" stroke-width="2" />
<text class="label" text-anchor="middle" x="391.0" y="121.0">b2</text>
<rect x="344" y="178" width="94" height="48" rx="7" fill="#f8f9f9" stroke="#2e8b57" stroke-width="2" />
<text class="label" text-anchor="middle" x="391.0" y="207.0">T_x[b2]</text>
<line x1="391" y1="140" x2="391" y2="178" stroke="#17202a" stroke-width="2" marker-end="url(#arrow)" />
<rect x="482" y="92" width="94" height="48" rx="7" fill="#f8f9f9" stroke="#2f6f9f" stroke-width="2" />
<text class="label" text-anchor="middle" x="529.0" y="121.0">b3</text>
<rect x="482" y="178" width="94" height="48" rx="7" fill="#f8f9f9" stroke="#2e8b57" stroke-width="2" />
<text class="label" text-anchor="middle" x="529.0" y="207.0">T_x[b3]</text>
<line x1="529" y1="140" x2="529" y2="178" stroke="#17202a" stroke-width="2" marker-end="url(#arrow)" />
<rect x="610" y="142" width="92" height="58" rx="7" fill="#f8f9f9" stroke="#d9822b" stroke-width="2" />
<text class="label" text-anchor="middle" x="656.0" y="176.0">sum</text>
<line x1="162" y1="202" x2="610" y2="171" stroke="#17202a" stroke-width="2" marker-end="url(#arrow)" />
<line x1="300" y1="202" x2="610" y2="171" stroke="#17202a" stroke-width="2" marker-end="url(#arrow)" />
<line x1="438" y1="202" x2="610" y2="171" stroke="#17202a" stroke-width="2" marker-end="url(#arrow)" />
<line x1="576" y1="202" x2="610" y2="171" stroke="#17202a" stroke-width="2" marker-end="url(#arrow)" />
<text class="small" x="64" y="334">Scale each lookup by 1/q^m and divide the accumulated result by beta.</text>
</svg>
