<svg xmlns="http://www.w3.org/2000/svg" width="760" height="360" viewBox="0 0 760 360" role="img">
  <defs>
    <marker id="arrow" markerWidth="8" markerHeight="8" refX="6" refY="3" orient="auto">
      <path d="M0,0 L0,6 L6,3 z" fill="#17202a" />
    </marker>
  </defs>
  <style>
    text { font-family: -apple-system, BlinkMacSystemFont, "Segoe UI", sans-serif; fill: #17202a; }
    .title { font-size: 20px; font-weight: 700; }
    .label { font-size: 13px; }
    .small { font-size: 12px; fill: #566573; }
    .axis { stroke: #5d6d7e; stroke-width: 1.5; }
    .grid { stroke: #d6dbdf; stroke-width: 1; }
  </style>
<rect x="0" y="0" width="760" height="360" fill="#ffffff" />
<text class="title" x="48" y="32">Even parity signatures in four dimensions</text>
<rect x="78" y="72" width="86" height="42" rx="6" fill="#2e8b57" opacity="0.18" stroke="#2e8b57" stroke-width="2" />
<text class="label" text-anchor="middle" x="121.0" y="99">0000</text>
<rect x="228" y="72" width="86" height="42" rx="6" fill="#7f8c8d" opacity="0.08" stroke="#7f8c8d" stroke-width="2" />
<text class="label" text-anchor="middle" x="271.0" y="99">0001</text>
<rect x="378" y="72" width="86" height="42" rx="6" fill="#7f8c8d" opacity="0.08" stroke="#7f8c8d" stroke-width="2" />
<text class="label" text-anchor="middle" x="421.0" y="99">0010</text>
<rect x="528" y="72" width="86" height="42" rx="6" fill="#2e8b57" opacity="0.18" stroke="#2e8b57" stroke-width="2" />
<text class="label" text-anchor="middle" x="571.0" y="99">0011</text>
<rect x="78" y="128" width="86" height="42" rx="6" fill="#7f8c8d" opacity="0.08" stroke="#7f8c8d" stroke-width="2" />
<text class="label" text-anchor="middle" x="121.0" y="155">0100</text>
<rect x="228" y="128" width="86" height="42" rx="6" fill="#2e8b57" opacity="0.18" stroke="#2e8b57" stroke-width="2" />
<text class="label" text-anchor="middle" x="271.0" y="155">0101</text>
<rect x="378" y="128" width="86" height="42" rx="6" fill="#2e8b57" opacity="0.18" stroke="#2e8b57" stroke-width="2" />
<text class="label" text-anchor="middle" x="421.0" y="155">0110</text>
<rect x="528" y="128" width="86" height="42" rx="6" fill="#7f8c8d" opacity="0.08" stroke="#7f8c8d" stroke-width="2" />
<text class="label" text-anchor="middle" x="571.0" y="155">0111</text>
<rect x="78" y="184" width="86" height="42" rx="6" fill="#7f8c8d" opacity="0.08" stroke="#7f8c8d" stroke-width="2" />
<text class="label" text-anchor="middle" x="121.0" y="211">1000</text>
<rect x="228" y="184" width="86" height="42" rx="6" fill="#2e8b57" opacity="0.18" stroke="#2e8b57" stroke-width="2" />
<text class="label" text-anchor="middle" x="271.0" y="211">1001</text>
<rect x="378" y="184" width="86" height="42" rx="6" fill="#2e8b57" opacity="0.18" stroke="#2e8b57" stroke-width="2" />
<text class="label" text-anchor="middle" x="421.0" y="211">1010</text>
<rect x="528" y="184" width="86" height="42" rx="6" fill="#7f8c8d" opacity="0.08" stroke="#7f8c8d" stroke-width="2" />
<text class="label" text-anchor="middle" x="571.0" y="211">1011</text>
<rect x="78" y="240" width="86" height="42" rx="6" fill="#2e8b57" opacity="0.18" stroke="#2e8b57" stroke-width="2" />
<text class="label" text-anchor="middle" x="121.0" y="267">1100</text>
<rect x="228" y="240" width="86" height="42" rx="6" fill="#7f8c8d" opacity="0.08" stroke="#7f8c8d" stroke-width="2" />
<text class="label" text-anchor="middle" x="271.0" y="267">1101</text>
<rect x="378" y="240" width="86" height="42" rx="6" fill="#7f8c8d" opacity="0.08" stroke="#7f8c8d" stroke-width="2" />
<text class="label" text-anchor="middle" x="421.0" y="267">1110</text>
<rect x="528" y="240" width="86" height="42" rx="6" fill="#2e8b57" opacity="0.18" stroke="#2e8b57" stroke-width="2" />
<text class="label" text-anchor="middle" x="571.0" y="267">1111</text>
<rect x="568" y="294" width="16" height="16" fill="#2e8b57" opacity="0.18" stroke="#2e8b57" />
<text class="small" x="592" y="307">kept by D4</text>
<rect x="568" y="318" width="16" height="16" fill="#7f8c8d" opacity="0.08" stroke="#7f8c8d" />
<text class="small" x="592" y="331">outside D4</text>
</svg>
