<svg xmlns="http://www.w3.org/2000/svg" width="760" height="360" viewBox="0 0 760 360" role="img">
  <defs>
    <marker id="arrow" markerWidth="8" markerHeight="8" refX="6" refY="3" orient="auto">
      <path d="M0,0 L0,6 L6,3 z" fill="#17202a" />
    </marker>
  </defs>
  <style>
    text { font-family: -apple-system, BlinkMacSystemFont, "Segoe UI", sans-serif; fill: #17202a; }
    .title { font-size: 20px; font-weight: 700; }
    .label { font-size: 13px; }
    .small { font-size: 12px; fill: #566573; }
    .axis { stroke: #5d6d7e; stroke-width: 1.5; }
    .grid { stroke: #d6dbdf; stroke-width: 1; }
  </style>
<rect x="0" y="0" width="760" height="360" fill="#ffffff" />
<text class="title" x="48" y="32">D4 parity slice: v3 = v4 = 0</text>
<line class="grid" x1="212.0" y1="52" x2="212.0" y2="314" />
<line class="grid" x1="190" y1="353.0" x2="570" y2="353.0" />
<line class="grid" x1="254.0" y1="52" x2="254.0" y2="314" />
<line class="grid" x1="190" y1="311.0" x2="570" y2="311.0" />
<line class="grid" x1="296.0" y1="52" x2="296.0" y2="314" />
<line class="grid" x1="190" y1="269.0" x2="570" y2="269.0" />
<line class="grid" x1="338.0" y1="52" x2="338.0" y2="314" />
<line class="grid" x1="190" y1="227.0" x2="570" y2="227.0" />
<line class="grid" x1="380.0" y1="52" x2="380.0" y2="314" />
<line class="grid" x1="190" y1="185.0" x2="570" y2="185.0" />
<line class="grid" x1="422.0" y1="52" x2="422.0" y2="314" />
<line class="grid" x1="190" y1="143.0" x2="570" y2="143.0" />
<line class="grid" x1="464.0" y1="52" x2="464.0" y2="314" />
<line class="grid" x1="190" y1="101.0" x2="570" y2="101.0" />
<line class="grid" x1="506.0" y1="52" x2="506.0" y2="314" />
<line class="grid" x1="190" y1="59.0" x2="570" y2="59.0" />
<line class="grid" x1="548.0" y1="52" x2="548.0" y2="314" />
<line class="grid" x1="190" y1="17.0" x2="570" y2="17.0" />
<line class="axis" x1="190" y1="185" x2="570" y2="185" />
<line class="axis" x1="380" y1="52" x2="380" y2="314" />
<circle cx="212.0" cy="311.0" r="5" fill="#7f8c8d" opacity="0.45" />
<circle cx="212.0" cy="269.0" r="7" fill="#2e8b57" opacity="1" />
<circle cx="212.0" cy="227.0" r="5" fill="#7f8c8d" opacity="0.45" />
<circle cx="212.0" cy="185.0" r="7" fill="#2e8b57" opacity="1" />
<circle cx="212.0" cy="143.0" r="5" fill="#7f8c8d" opacity="0.45" />
<circle cx="212.0" cy="101.0" r="7" fill="#2e8b57" opacity="1" />
<circle cx="212.0" cy="59.0" r="5" fill="#7f8c8d" opacity="0.45" />
<circle cx="254.0" cy="311.0" r="7" fill="#2e8b57" opacity="1" />
<circle cx="254.0" cy="269.0" r="5" fill="#7f8c8d" opacity="0.45" />
<circle cx="254.0" cy="227.0" r="7" fill="#2e8b57" opacity="1" />
<circle cx="254.0" cy="185.0" r="5" fill="#7f8c8d" opacity="0.45" />
<circle cx="254.0" cy="143.0" r="7" fill="#2e8b57" opacity="1" />
<circle cx="254.0" cy="101.0" r="5" fill="#7f8c8d" opacity="0.45" />
<circle cx="254.0" cy="59.0" r="7" fill="#2e8b57" opacity="1" />
<circle cx="296.0" cy="311.0" r="5" fill="#7f8c8d" opacity="0.45" />
<circle cx="296.0" cy="269.0" r="7" fill="#2e8b57" opacity="1" />
<circle cx="296.0" cy="227.0" r="5" fill="#7f8c8d" opacity="0.45" />
<circle cx="296.0" cy="185.0" r="7" fill="#2e8b57" opacity="1" />
<circle cx="296.0" cy="143.0" r="5" fill="#7f8c8d" opacity="0.45" />
<circle cx="296.0" cy="101.0" r="7" fill="#2e8b57" opacity="1" />
<circle cx="296.0" cy="59.0" r="5" fill="#7f8c8d" opacity="0.45" />
<circle cx="338.0" cy="311.0" r="7" fill="#2e8b57" opacity="1" />
<circle cx="338.0" cy="269.0" r="5" fill="#7f8c8d" opacity="0.45" />
<circle cx="338.0" cy="227.0" r="7" fill="#2e8b57" opacity="1" />
<circle cx="338.0" cy="185.0" r="5" fill="#7f8c8d" opacity="0.45" />
<circle cx="338.0" cy="143.0" r="7" fill="#2e8b57" opacity="1" />
<circle cx="338.0" cy="101.0" r="5" fill="#7f8c8d" opacity="0.45" />
<circle cx="338.0" cy="59.0" r="7" fill="#2e8b57" opacity="1" />
<circle cx="380.0" cy="311.0" r="5" fill="#7f8c8d" opacity="0.45" />
<circle cx="380.0" cy="269.0" r="7" fill="#2e8b57" opacity="1" />
<circle cx="380.0" cy="227.0" r="5" fill="#7f8c8d" opacity="0.45" />
<circle cx="380.0" cy="185.0" r="7" fill="#2e8b57" opacity="1" />
<circle cx="380.0" cy="143.0" r="5" fill="#7f8c8d" opacity="0.45" />
<circle cx="380.0" cy="101.0" r="7" fill="#2e8b57" opacity="1" />
<circle cx="380.0" cy="59.0" r="5" fill="#7f8c8d" opacity="0.45" />
<circle cx="422.0" cy="311.0" r="7" fill="#2e8b57" opacity="1" />
<circle cx="422.0" cy="269.0" r="5" fill="#7f8c8d" opacity="0.45" />
<circle cx="422.0" cy="227.0" r="7" fill="#2e8b57" opacity="1" />
<circle cx="422.0" cy="185.0" r="5" fill="#7f8c8d" opacity="0.45" />
<circle cx="422.0" cy="143.0" r="7" fill="#2e8b57" opacity="1" />
<circle cx="422.0" cy="101.0" r="5" fill="#7f8c8d" opacity="0.45" />
<circle cx="422.0" cy="59.0" r="7" fill="#2e8b57" opacity="1" />
<circle cx="464.0" cy="311.0" r="5" fill="#7f8c8d" opacity="0.45" />
<circle cx="464.0" cy="269.0" r="7" fill="#2e8b57" opacity="1" />
<circle cx="464.0" cy="227.0" r="5" fill="#7f8c8d" opacity="0.45" />
<circle cx="464.0" cy="185.0" r="7" fill="#2e8b57" opacity="1" />
<circle cx="464.0" cy="143.0" r="5" fill="#7f8c8d" opacity="0.45" />
<circle cx="464.0" cy="101.0" r="7" fill="#2e8b57" opacity="1" />
<circle cx="464.0" cy="59.0" r="5" fill="#7f8c8d" opacity="0.45" />
<circle cx="506.0" cy="311.0" r="7" fill="#2e8b57" opacity="1" />
<circle cx="506.0" cy="269.0" r="5" fill="#7f8c8d" opacity="0.45" />
<circle cx="506.0" cy="227.0" r="7" fill="#2e8b57" opacity="1" />
<circle cx="506.0" cy="185.0" r="5" fill="#7f8c8d" opacity="0.45" />
<circle cx="506.0" cy="143.0" r="7" fill="#2e8b57" opacity="1" />
<circle cx="506.0" cy="101.0" r="5" fill="#7f8c8d" opacity="0.45" />
<circle cx="506.0" cy="59.0" r="7" fill="#2e8b57" opacity="1" />
<circle cx="548.0" cy="311.0" r="5" fill="#7f8c8d" opacity="0.45" />
<circle cx="548.0" cy="269.0" r="7" fill="#2e8b57" opacity="1" />
<circle cx="548.0" cy="227.0" r="5" fill="#7f8c8d" opacity="0.45" />
<circle cx="548.0" cy="185.0" r="7" fill="#2e8b57" opacity="1" />
<circle cx="548.0" cy="143.0" r="5" fill="#7f8c8d" opacity="0.45" />
<circle cx="548.0" cy="101.0" r="7" fill="#2e8b57" opacity="1" />
<circle cx="548.0" cy="59.0" r="5" fill="#7f8c8d" opacity="0.45" />
<circle cx="610" cy="110" r="7" fill="#2e8b57" />
<text class="small" x="628" y="114">even sum: in D4 slice</text>
<circle cx="610" cy="140" r="5" fill="#7f8c8d" opacity="0.45" />
<text class="small" x="628" y="144">odd sum: outside</text>
<text class="small" x="48" y="334">This is only a visible two-dimensional slice of the four-dimensional lattice.</text>
</svg>
